<svg width="116" height="18" viewBox="0 0 116 18" fill="none" xmlns="http://www.w3.org/2000/svg">
<path d="M13.823 2.34476C13.823 2.29591 13.823 2.25928 13.823 2.21043C13.823 2.16158 13.823 2.12495 13.823 2.0761V0.329834H10.074V2.0761C10.074 2.12495 10.074 2.16158 10.074 2.21043C10.074 2.25928 10.074 2.29591 10.074 2.34476V7.13173H4.00484V2.33255C4.00484 2.29591 4.00484 2.24707 4.00484 2.21043C4.00484 2.1738 4.00484 2.12495 4.00484 2.08831V0.329834H0.255859V2.08831C0.255859 2.12495 0.255859 2.1738 0.255859 2.21043C0.255859 2.24707 0.255859 2.29591 0.255859 2.33255V15.6677C0.255859 15.7043 0.255859 15.7532 0.255859 15.7898C0.255859 15.8264 0.255859 15.8753 0.255859 15.9119V17.6704H4.00484V15.9119C4.00484 15.8753 4.00484 15.8264 4.00484 15.7898C4.00484 15.7532 4.00484 15.7043 4.00484 15.6677V10.8807L7.03334 9.00012L10.0618 10.8685V15.6555C10.0618 15.7043 10.0618 15.741 10.0618 15.7898C10.0618 15.8387 10.0618 15.8753 10.0618 15.9241V17.6704H13.8108V15.9241C13.8108 15.8753 13.8108 15.8387 13.8108 15.7898C13.8108 15.741 13.8108 15.7043 13.8108 15.6555V2.34476H13.823Z" fill="#02F7FD"/>
<path d="M21.81 4.67712C17.8656 4.67712 15.5088 7.09503 15.5088 11.1493C15.5088 15.2036 17.8656 17.6093 21.81 17.6093C25.7544 17.6093 28.099 15.1914 28.099 11.1493C28.099 7.10725 25.7422 4.67712 21.81 4.67712ZM21.81 14.5319C20.1492 14.5319 19.2089 13.2986 19.2089 11.1493C19.2089 9.00006 20.1492 7.73004 21.81 7.73004C23.4708 7.73004 24.4233 8.97563 24.4233 11.1493C24.4233 13.323 23.4708 14.5319 21.81 14.5319Z" fill="white"/>
<path d="M40.9457 4.92139V17.3773H37.3188V15.4112H36.8303V15.4723C36.6472 16.4858 35.8778 17.3162 34.9009 17.5238C34.6078 17.5849 34.3025 17.6093 33.985 17.6093C31.3229 17.6093 29.7354 15.6799 29.7354 12.4438V4.92139H33.3622V12.2972C33.3622 13.1398 33.6065 14.532 35.2184 14.532C36.8303 14.532 37.3188 13.4696 37.3188 11.6134V4.92139H40.9457Z" fill="white"/>
<path d="M53.6453 13.4085C53.6453 14.7029 53.1202 15.7775 52.1433 16.5102C51.1786 17.2307 49.7864 17.6093 48.1134 17.6093C44.6575 17.6093 42.5938 15.9729 42.5938 13.2253V12.92H46.013V13.2253C46.013 14.7884 47.3319 15.0204 48.1134 15.0204C48.895 15.0204 50.1284 14.8617 50.1284 13.7626C50.1284 12.6636 49.1392 12.5903 47.5151 12.3094C45.5612 11.9919 42.8868 11.5401 42.8868 8.57265C42.8868 5.60521 44.8407 4.67712 48.1134 4.67712C51.3862 4.67712 53.3278 6.25243 53.3278 8.87794V9.17102H49.9085V8.87794C49.9085 7.51023 48.9316 7.21715 48.1134 7.21715C47.2952 7.21715 46.4038 7.32706 46.4038 8.30399C46.4038 9.28092 47.3319 9.26871 48.8339 9.53737H48.8828C50.8977 9.90372 53.6453 10.38 53.6453 13.4085Z" fill="white"/>
<path d="M63.1585 12.5414L63.1096 12.7735C62.841 13.9702 61.9617 14.6418 60.7039 14.6418C59.4461 14.6418 58.7134 13.8969 58.3959 12.5414L56.9305 12.2972V11.7965H66.6388V11.1493C66.6388 7.09503 64.4163 4.67712 60.7039 4.67712C56.9916 4.67712 54.7202 7.09503 54.7202 11.1493C54.7202 15.2036 56.955 17.6093 60.7039 17.6093C64.4529 17.6093 66.1992 15.8386 66.6388 12.8834L66.6876 12.5414H63.1585ZM58.3227 10.0625C58.6768 8.04754 59.8125 7.62014 60.7039 7.62014C61.5954 7.62014 62.6944 7.93764 63.0364 10.0625V10.1357C63.0486 10.1357 58.3104 10.1357 58.3104 10.1357V10.0625H58.3227Z" fill="white"/>
<path d="M75.8456 4.67704C74.1726 4.67704 72.8537 5.3609 72.1088 6.59428L71.9989 6.77745V0.390747H68.3721V17.3772H71.9989V15.4111H72.4996V15.4722C72.6339 16.2415 73.1102 16.8887 73.7818 17.194C74.3924 17.4749 75.0763 17.6092 75.8456 17.6092C78.9229 17.6092 80.7547 15.1913 80.7547 11.1492C80.7547 7.10717 78.9229 4.67704 75.8456 4.67704ZM74.4413 14.5319C72.8415 14.5319 71.8402 13.2374 71.8402 11.1492C71.8402 9.06103 72.8415 7.72996 74.4413 7.72996C76.041 7.72996 77.0546 8.97555 77.0546 11.1492C77.0546 13.3229 76.1021 14.5319 74.4413 14.5319Z" fill="white"/>
<path d="M90.3665 12.5414L90.3176 12.7735C90.0368 13.9702 89.1575 14.6418 87.8997 14.6418C86.6419 14.6418 85.9214 13.8969 85.5917 12.5414L83.7966 12.2972V11.7965H93.8346V11.1493C93.8346 7.09503 91.6121 4.67712 87.8997 4.67712C84.1874 4.67712 81.916 7.09503 81.916 11.1493C81.916 15.2036 84.1508 17.6093 87.8997 17.6093C91.6487 17.6093 93.395 15.8386 93.8346 12.8834L93.8835 12.5414H90.3665ZM85.5307 10.0625C85.8726 8.04754 87.0083 7.62014 87.8997 7.62014C88.7912 7.62014 89.9025 7.93764 90.2322 10.0625V10.1357C90.2444 10.1357 85.5185 10.1357 85.5185 10.1357V10.0625H85.5307Z" fill="white"/>
<path d="M114.9 13.4085C114.9 14.7029 114.375 15.7775 113.386 16.5102C112.433 17.2307 111.041 17.6093 109.368 17.6093C105.912 17.6093 103.849 15.9729 103.849 13.2253V12.92H107.268V13.2253C107.268 14.7884 108.587 15.0204 109.368 15.0204C110.15 15.0204 111.383 14.8617 111.383 13.7626C111.383 12.6636 110.394 12.5903 108.77 12.3094C106.816 11.9919 104.142 11.5523 104.142 8.57265C104.142 5.593 106.096 4.67712 109.368 4.67712C112.641 4.67712 114.57 6.25243 114.57 8.87794V9.17102H111.151V8.87794C111.151 7.51023 110.186 7.21715 109.368 7.21715C108.55 7.21715 107.659 7.32706 107.659 8.30399C107.659 9.28092 108.587 9.26871 110.089 9.53737H110.138C112.14 9.90372 114.9 10.38 114.9 13.4085Z" fill="white"/>
<path d="M98.3531 7.65672V8.1574L99.6597 8.40164V13.0787C99.6597 13.7381 99.9284 14.5319 101.186 14.5319C102.444 14.5319 102.212 14.3976 102.578 14.19L103.03 13.9335V16.9498L102.859 17.0353C102.114 17.3894 101.125 17.6092 100.234 17.6092C97.5959 17.6092 96.0329 16.0706 96.0329 13.4817V7.66893H94.3843V4.92131H96.0329V1.27002H99.6597V4.92131H103.238V7.66893H98.3531V7.65672Z" fill="white"/>
</svg>
